<?xml version="1.0" encoding="UTF-8" standalone="no"?>
<!-- Creator: CorelDRAW 2019 (64-Bit) -->

<svg
   xml:space="preserve"
   width="110mm"
   height="25mm"
   version="1.1"
   style="clip-rule:evenodd;fill-rule:evenodd;image-rendering:optimizeQuality;shape-rendering:geometricPrecision;text-rendering:geometricPrecision"
   viewBox="0 0 11000 2500"
   id="svg18"
   sodipodi:docname="ForrestHub-helceletka-bg.svg"
   inkscape:version="1.4 (e7c3feb1, 2024-10-09)"
   inkscape:export-filename="ForrestHub-helceletka-bg.png"
   inkscape:export-xdpi="230.91"
   inkscape:export-ydpi="230.91"
   xmlns:inkscape="http://www.inkscape.org/namespaces/inkscape"
   xmlns:sodipodi="http://sodipodi.sourceforge.net/DTD/sodipodi-0.dtd"
   xmlns="http://www.w3.org/2000/svg"
   xmlns:svg="http://www.w3.org/2000/svg"><sodipodi:namedview
   id="namedview18"
   pagecolor="#ffffff"
   bordercolor="#666666"
   borderopacity="1.0"
   inkscape:showpageshadow="2"
   inkscape:pageopacity="0.0"
   inkscape:pagecheckerboard="0"
   inkscape:deskcolor="#d1d1d1"
   inkscape:document-units="mm"
   inkscape:zoom="1.1893651"
   inkscape:cx="216.50207"
   inkscape:cy="147.13733"
   inkscape:window-width="1504"
   inkscape:window-height="879"
   inkscape:window-x="4485"
   inkscape:window-y="528"
   inkscape:window-maximized="0"
   inkscape:current-layer="Vrstva_x0020_1"
   inkscape:export-bgcolor="#ffffffff" />
 <defs
   id="defs1">
  <style
   type="text/css"
   id="style1">
   <![CDATA[
    .fil1 {fill:#FEFEFE}
    .fil3 {fill:#70BE47}
    .fil2 {fill:#70BE47}
    .fil0 {fill:#EA2227}
    .fil5 {fill:#FAC01C}
    .fil4 {fill:white}
    .fil6 {fill:#2B2A29;fill-rule:nonzero}
   ]]>
  </style>
 </defs>
 <g
   id="Vrstva_x0020_1"
   inkscape:label="Vrstva 1"
   inkscape:groupmode="layer"
   transform="translate(-2081.53,-2490.98)">
  <metadata
   id="CorelCorpID_0Corel-Layer" />
  
  
  
  
  
  
  
  
  
  
  
  
  
  
  
  
  
  
  
  <rect
   style="fill:#ffffff;stroke-width:27.5352"
   id="rect1"
   width="11000"
   height="2500"
   x="2081.53"
   y="2490.98" /><g
   id="g1"
   transform="translate(648.02008,278.41002)"><path
     class="fil0"
     d="m 3169.39,3192.46 -0.03,4.88 c 27.11,19.73 44.1,40.81 68.86,64.6 l 987.64,916.54 c 22.23,20.5 52.3,52.97 73.14,68.79 l 6.51,-0.07 c 52.03,-50.58 115.3,-161.8 143.81,-232.94 38.65,-96.42 60.32,-205.46 55.67,-323.15 -25.86,-653.87 -782.01,-958.95 -1236.14,-591.39 -33.7,27.28 -77.57,63.16 -99.46,92.74 z"
     id="path1" /><path
     class="fil1"
     d="m 3284.57,3320.95 10.72,-5.31 c 21.04,15.31 44.97,49.81 64.19,68.27 l 755.71,693.15 c 17.25,15.9 41.41,44.72 57.58,57 l 4.23,-3.67 c 40.38,-39.25 89.48,-125.57 111.61,-180.77 29.99,-74.84 46.81,-159.46 43.2,-250.78 -20.07,-507.44 -606.88,-744.21 -959.31,-458.96 -26.16,21.17 -70.95,58.12 -87.93,81.07 z"
     id="path2" /><path
     class="fil0"
     d="m 3849.74,3941.71 0.01,-1.61 c -8.97,-6.53 -14.59,-13.5 -22.79,-21.37 L 3500.21,3615.5 c -7.35,-6.78 -17.3,-17.53 -24.19,-22.76 l -2.16,0.02 c -17.21,16.74 -38.14,53.53 -47.57,77.07 -12.79,31.9 -19.96,67.97 -18.42,106.91 8.55,216.32 258.72,317.26 408.96,195.65 11.15,-9.02 25.67,-20.89 32.91,-30.68 z"
     id="path3" /><path
     class="fil0"
     d="m 3374.27,3386.89 -0.02,3.04 c 16.88,12.28 27.46,25.41 42.88,40.22 l 614.93,570.66 c 13.84,12.76 32.56,32.98 45.53,42.83 l 4.06,-0.05 c 32.39,-31.49 71.79,-100.73 89.54,-145.03 24.06,-60.03 37.56,-127.92 34.66,-201.2 -16.1,-407.11 -486.9,-597.07 -769.65,-368.21 -20.99,16.98 -48.3,39.32 -61.93,57.74 z"
     id="path4" /><path
     class="fil0"
     d="m 3407.68,3418.59 -0.02,2.74 c 15.2,11.06 24.73,22.88 38.61,36.22 l 553.79,513.92 c 12.47,11.49 29.33,29.7 41.01,38.57 l 3.65,-0.04 c 29.17,-28.36 64.65,-90.72 80.64,-130.61 21.67,-54.07 33.82,-115.21 31.21,-181.2 -14.5,-366.63 -438.48,-537.7 -693.12,-331.6 -18.9,15.29 -43.5,35.41 -55.77,52 z"
     id="path5" /><path
     class="fil1"
     d="m 3478.29,3493.03 -0.02,2.13 c 11.8,8.58 19.19,17.76 29.97,28.11 L 3938,3922.1 c 9.68,8.92 22.76,23.05 31.83,29.93 l 2.83,-0.03 c 22.64,-22.01 50.18,-70.4 62.58,-101.36 16.82,-41.96 26.25,-89.41 24.23,-140.62 -11.25,-284.53 -340.29,-417.28 -537.91,-257.34 -14.66,11.87 -33.75,27.48 -43.27,40.35 z"
     id="path6" /><path
     class="fil0"
     d="m 3517.72,3552.55 -0.01,1.61 c 8.97,6.53 14.59,13.51 22.78,21.38 l 326.77,303.24 c 7.35,6.78 17.3,17.52 24.2,22.76 l 2.15,-0.03 c 17.21,-16.73 38.15,-53.53 47.58,-77.06 12.79,-31.91 19.96,-67.98 18.42,-106.92 -8.56,-216.33 -258.73,-317.27 -408.98,-195.66 -11.15,9.02 -25.67,20.89 -32.91,30.68 z"
     id="path7" /><polygon
     class="fil2"
     points="2866.76,4293.04 3575.77,4294.04 2867.75,3592.75 "
     id="polygon7" /><polygon
     class="fil2"
     points="2790.53,4293.06 2081.53,4294.06 2789.55,3592.78 "
     id="polygon8" /><polygon
     class="fil2"
     points="2866.77,3547.82 3430.12,3548.61 2867.55,2991.39 "
     id="polygon9" /><polygon
     class="fil2"
     points="2790.52,3556.22 2227.18,3557.01 2789.74,2999.81 "
     id="polygon10" /><polygon
     class="fil2"
     points="2866.78,2963.54 3231.43,2964.06 2867.29,2603.38 "
     id="polygon11" /><polygon
     class="fil2"
     points="2790.31,2963.54 2425.67,2964.05 2789.81,2603.38 "
     id="polygon12" /><path
     class="fil3"
     d="m 6415.26,4099.79 -1.31,-0.38 -638.92,-0.33 -1.42,-0.06 -2.18,295.29 155.05,-0.55 c 5.02,-56.64 18.83,-86.17 48.93,-116.29 25.33,-25.35 66.11,-49.09 118.27,-49.28 93.46,-0.36 167.53,73.93 168.16,166.14 25.7,0 137.1,3.23 153.17,-1.16 z"
     id="path12" /><path
     class="fil4"
     d="m 5775.03,4099.08 638.92,0.33 c -12.87,-13.84 -26.64,-26.01 -40.39,-39.75 L 6254.1,3941.17 c -25.52,-25.56 -134.3,-135.96 -160.38,-158.15 -4.85,5.87 -14.65,14.23 -20.87,20.45 l -278.22,276.35 c -7.21,6.92 -13.54,11.61 -19.6,19.26 z"
     id="path13" /><path
     class="fil0"
     d="m 5773.61,4099.02 1.42,0.06 c 6.06,-7.65 12.39,-12.34 19.6,-19.26 l 278.22,-276.35 c 6.22,-6.22 16.02,-14.58 20.87,-20.45 l 0.06,-1.9 c -14.1,-15.73 -45.69,-35.44 -66.04,-44.58 -27.58,-12.37 -59.03,-19.97 -93.31,-20.01 -190.45,-0.22 -288.12,216.05 -186.61,352.47 7.53,10.12 17.45,23.3 25.79,30.02 z"
     id="path14" /><path
     class="fil5"
     d="m 6093.78,3781.12 -0.06,1.9 c 26.08,22.19 134.86,132.59 160.38,158.15 l 119.46,118.49 c 13.75,13.74 27.52,25.91 40.39,39.75 l 1.31,0.38 c 15.19,-20.89 27.52,-25.46 46.14,-67.08 40.31,-90.13 15.45,-189.86 -46.15,-250.82 -7.98,-7.9 -20.37,-17.59 -31.02,-25.16 -75.39,-53.62 -183.48,-52.6 -258.88,-0.09 z"
     id="path15" /><path
     class="fil6"
     d="m 4934.05,3477.58 c -26.31,0 -49.33,-9.13 -69.06,-27.4 -19.73,-18.27 -29.6,-39.83 -29.6,-64.68 v -681.85 c 0,-42.39 12.42,-75.64 37.27,-99.76 24.85,-24.12 57.74,-36.18 98.66,-36.18 h 342.03 c 29.23,0 51.89,8.04 67.96,24.12 16.08,16.08 24.12,38 24.12,65.77 0,24.85 -8.77,46.05 -26.31,63.59 -17.54,17.54 -39.46,26.31 -65.77,26.31 h -236.79 c -29.23,0 -43.85,14.61 -43.85,43.84 v 98.67 c 0,29.23 14.62,43.84 43.85,43.84 h 206.09 c 27.77,0 50.06,8.04 66.87,24.12 16.81,16.08 25.22,37.27 25.22,63.58 0,24.85 -9.14,45.68 -27.41,62.49 -18.27,16.81 -39.83,25.21 -64.68,25.21 h -206.09 c -29.23,0 -43.85,14.62 -43.85,43.85 v 232.4 c 0,24.85 -9.86,46.41 -29.6,64.68 -19.73,18.27 -42.75,27.4 -69.06,27.4 z m 861.64,0 c -62.85,0 -120.59,-14.61 -173.21,-43.84 -52.62,-29.24 -94.64,-69.8 -126.06,-121.69 -31.43,-51.88 -47.14,-110.72 -47.14,-176.49 0,-67.23 15.71,-126.07 47.14,-176.49 31.42,-50.43 73.44,-89.89 126.06,-118.4 52.62,-28.5 110.36,-42.75 173.21,-42.75 64.31,0 122.41,14.25 174.3,42.75 51.89,28.51 93.18,67.97 123.87,118.4 30.7,50.42 46.04,109.26 46.04,176.49 0,65.77 -15.34,124.61 -46.04,176.49 -30.69,51.89 -71.98,92.45 -123.87,121.69 -51.89,29.23 -109.99,43.84 -174.3,43.84 z m 0,-177.58 c 45.31,0 82.22,-15.72 110.72,-47.14 28.5,-31.43 42.75,-70.53 42.75,-117.3 0,-48.23 -14.25,-86.97 -42.75,-116.2 -28.5,-29.23 -65.41,-43.85 -110.72,-43.85 -43.85,0 -80.76,14.62 -110.72,43.85 -29.96,29.23 -44.95,67.97 -44.95,116.2 0,46.77 14.99,85.87 44.95,117.3 29.96,31.42 66.87,47.14 110.72,47.14 z m 574.42,171.01 c -27.77,0 -51.16,-8.04 -70.16,-24.12 -19,-16.08 -28.5,-36.54 -28.5,-61.39 v -491.11 c 0,-23.39 9.13,-43.48 27.4,-60.29 18.27,-16.81 42.03,-25.22 71.26,-25.22 26.31,0 47.87,7.68 64.68,23.03 16.81,15.34 26.67,33.98 29.59,55.9 16.08,-24.85 38.01,-46.04 65.78,-63.58 27.77,-17.54 57,-26.31 87.7,-26.31 19,0 37.27,2.19 54.81,6.58 20.46,5.85 37.27,17.17 50.43,33.98 13.15,16.81 19.73,36.18 19.73,58.1 0,30.7 -9.87,55.91 -29.6,75.64 -19.73,19.73 -42.75,26.68 -69.06,20.83 -19,-4.38 -38.01,-6.58 -57.01,-6.58 -33.62,0 -61.39,11.7 -83.31,35.08 -21.93,23.39 -35.08,70.89 -39.47,142.51 v 219.25 c 0,24.85 -9.13,45.68 -27.4,62.48 -18.27,16.81 -40.56,25.22 -66.87,25.22 z m 570.04,0 c -27.77,0 -51.16,-8.04 -70.16,-24.12 -19,-16.08 -28.5,-36.54 -28.5,-61.39 v -491.11 c 0,-23.39 9.13,-43.48 27.4,-60.29 18.27,-16.81 42.03,-25.22 71.26,-25.22 26.31,0 47.87,7.68 64.68,23.03 16.81,15.34 26.67,33.98 29.59,55.9 16.08,-24.85 38.01,-46.04 65.78,-63.58 27.77,-17.54 57,-26.31 87.7,-26.31 19,0 37.27,2.19 54.81,6.58 20.46,5.85 37.27,17.17 50.43,33.98 13.15,16.81 19.73,36.18 19.73,58.1 0,30.7 -9.87,55.91 -29.6,75.64 -19.73,19.73 -42.75,26.68 -69.06,20.83 -19,-4.38 -38.01,-6.58 -57.01,-6.58 -33.62,0 -61.39,11.7 -83.31,35.08 -21.93,23.39 -35.08,70.89 -39.47,142.51 v 219.25 c 0,24.85 -9.13,45.68 -27.4,62.48 -18.27,16.81 -40.56,25.22 -66.87,25.22 z m 758.6,6.57 c -99.4,0 -183.08,-29.59 -251.04,-88.79 -67.97,-59.2 -101.95,-140.68 -101.95,-244.46 0,-108.16 33.25,-192.94 99.76,-254.32 66.5,-61.39 150.18,-92.09 251.03,-92.09 71.62,0 130.82,13.16 177.59,39.47 46.77,26.31 81.85,59.92 105.24,100.85 23.39,40.93 35.08,84.04 35.08,129.35 0,76.01 -33.62,114.01 -100.85,114.01 h -363.95 c -11.7,0 -17.54,7.31 -17.54,21.93 0,33.61 18.63,60.29 55.91,80.02 37.27,19.73 79.29,29.6 126.06,29.6 29.24,0 58.47,-4.02 87.7,-12.06 29.23,-8.04 54.81,-20.1 76.74,-36.17 14.61,-10.24 29.96,-15.35 46.04,-15.35 21.92,0 40.56,8.04 55.91,24.12 15.34,16.07 23.02,35.08 23.02,57 0,26.31 -13.89,51.16 -41.66,74.54 -26.31,21.93 -64.68,39.47 -115.1,52.62 -50.43,13.16 -99.76,19.73 -147.99,19.73 z m 114,-423.14 c 2.93,0 6.95,-0.73 12.06,-2.19 5.12,-1.46 7.68,-6.58 7.68,-15.35 0,-21.92 -13.52,-42.02 -40.57,-60.29 -27.04,-18.27 -61.75,-27.41 -104.14,-27.41 -45.31,0 -82.21,9.87 -110.72,29.6 -28.5,19.73 -42.75,39.83 -42.75,60.29 0,10.23 5.85,15.35 17.54,15.35 z m 561.27,423.14 c -99.39,0 -181.24,-20.46 -245.55,-61.38 -13.16,-8.77 -22.66,-19.37 -28.5,-31.79 -5.85,-12.43 -8.77,-24.49 -8.77,-36.18 0,-24.85 8.4,-47.5 25.21,-67.97 16.81,-20.46 37.64,-30.69 62.49,-30.69 11.69,0 23.38,2.92 35.07,8.77 26.31,11.69 56.28,21.56 89.9,29.6 33.61,8.04 64.31,12.06 92.08,12.06 54.08,0 81.12,-12.43 81.12,-37.28 0,-14.61 -6.58,-27.4 -19.73,-38.36 -13.16,-10.97 -43.85,-18.64 -92.09,-23.03 -19,-1.46 -43.48,-4.38 -73.44,-8.77 -29.97,-4.38 -59.56,-12.78 -88.8,-25.21 -29.23,-12.42 -53.71,-31.06 -73.45,-55.91 -19.73,-24.84 -29.59,-58.46 -29.59,-100.85 0,-65.77 24.84,-117.66 74.54,-155.66 49.7,-38.01 116.2,-57.01 199.51,-57.01 48.24,0 93.91,5.12 137.03,15.35 43.12,10.23 75.64,25.58 97.57,46.04 20.46,19 30.69,40.93 30.69,65.77 0,21.93 -8.04,41.66 -24.12,59.2 -16.07,17.54 -36.54,26.31 -61.38,26.31 -13.16,0 -25.58,-2.92 -37.28,-8.77 -17.54,-11.69 -39.83,-20.46 -66.87,-26.31 -27.04,-5.85 -54.44,-8.77 -82.21,-8.77 -55.55,0 -83.32,11.69 -83.32,35.08 0,10.23 5.48,19.37 16.45,27.41 10.96,8.04 36.17,14.98 75.64,20.82 24.84,2.93 53.35,6.95 85.5,12.06 32.16,5.12 63.22,13.89 93.18,26.31 29.97,12.43 55.18,32.52 75.64,60.3 20.47,27.77 30.7,65.77 30.7,114 0,65.78 -26.31,118.03 -78.93,156.76 -52.62,38.74 -122.05,58.1 -208.29,58.1 z m 681.86,0 c -62.85,0 -114.74,-18.27 -155.67,-54.81 -40.92,-36.54 -61.39,-92.81 -61.39,-168.82 v -236.78 c 0,-14.62 -7.31,-21.93 -21.92,-21.93 h -32.89 c -26.31,0 -46.04,-8.04 -59.2,-24.11 -13.15,-16.08 -19.73,-36.54 -19.73,-61.39 0,-26.31 6.58,-47.87 19.73,-64.68 13.16,-16.81 32.89,-25.21 59.2,-25.21 h 32.89 c 14.61,0 21.92,-7.31 21.92,-21.93 v -162.24 c 0,-24.85 8.77,-46.04 26.31,-63.58 17.54,-17.54 40.2,-26.31 67.97,-26.31 27.77,0 50.79,8.4 69.06,25.21 18.27,16.81 27.41,38.37 27.41,64.68 v 162.24 c 0,14.62 7.3,21.93 21.92,21.93 h 81.12 c 24.85,0 45.68,8.77 62.49,26.31 16.81,17.54 25.21,38.73 25.21,63.58 0,24.85 -8.4,45.31 -25.21,61.39 -16.81,16.07 -38.37,24.11 -64.68,24.11 h -78.93 c -14.62,0 -21.92,7.31 -21.92,21.93 v 206.09 c 0,26.31 4.75,44.58 14.25,54.81 9.5,10.23 21.56,15.35 36.17,15.35 5.85,0 17.54,-1.83 35.08,-5.48 17.54,-3.66 28.5,-5.48 32.89,-5.48 23.39,0 43.12,8.77 59.2,26.31 16.07,17.53 24.11,38.73 24.11,63.58 0,19 -5.48,36.54 -16.44,52.62 -10.96,16.07 -28.14,27.77 -51.52,35.07 -19,5.85 -37.28,10.24 -54.82,13.16 -17.53,2.92 -35.07,4.38 -52.61,4.38 z m 394.64,0 c -27.77,0 -51.16,-8.77 -70.16,-26.3 -19,-17.54 -28.5,-39.47 -28.5,-65.78 v -734.47 c 0,-27.77 9.5,-50.43 28.5,-67.97 19,-17.54 42.39,-26.31 70.16,-26.31 29.23,0 52.99,8.77 71.26,26.31 18.27,17.54 27.4,40.2 27.4,67.97 v 210.47 c 0,29.24 14.62,43.85 43.85,43.85 h 295.98 c 29.24,0 43.85,-14.61 43.85,-43.85 v -210.47 c 0,-27.77 9.14,-50.43 27.41,-67.97 18.27,-17.54 42.02,-26.31 71.25,-26.31 29.24,0 52.99,8.77 71.26,26.31 18.27,17.54 27.4,40.2 27.4,67.97 v 734.47 c 0,27.77 -9.13,50.06 -27.4,66.87 -18.27,16.81 -42.02,25.21 -71.26,25.21 -27.77,0 -51.15,-8.4 -70.16,-25.21 -19,-16.81 -28.5,-39.1 -28.5,-66.87 v -256.52 c 0,-29.23 -14.61,-43.85 -43.85,-43.85 h -295.98 c -29.23,0 -43.85,14.62 -43.85,43.85 v 256.52 c 0,27.77 -9.13,50.06 -27.4,66.87 -18.27,16.81 -42.03,25.21 -71.26,25.21 z m 1297.93,-585.38 c 0,-27.77 9.14,-50.43 27.41,-67.97 18.27,-17.54 41.29,-26.31 69.06,-26.31 27.77,0 50.79,9.14 69.06,27.41 18.27,18.27 27.41,40.56 27.41,66.87 v 309.13 c 0,59.93 -15.35,110.72 -46.04,152.38 -30.7,41.66 -70.16,72.72 -118.39,93.18 -48.24,20.46 -99.4,30.69 -153.48,30.69 -52.62,0 -103.04,-10.23 -151.28,-30.69 -48.23,-20.46 -88.06,-51.52 -119.49,-93.18 -31.42,-41.66 -47.13,-92.45 -47.13,-152.38 V 2892.2 c 0,-27.77 9.13,-50.43 27.4,-67.97 18.27,-17.54 41.29,-26.31 69.06,-26.31 27.78,0 50.8,9.14 69.07,27.41 18.27,18.27 27.4,40.56 27.4,66.87 v 300.36 c 0,30.7 11.7,56.28 35.08,76.74 23.39,20.46 53.35,30.7 89.89,30.7 36.54,0 66.51,-10.24 89.89,-30.7 23.39,-20.46 35.08,-46.04 35.08,-76.74 z m 712.56,585.38 c -65.78,0 -121.32,-20.46 -166.63,-61.38 -13.15,40.92 -43.12,61.38 -89.89,61.38 -27.77,0 -51.16,-8.03 -70.16,-24.11 -19,-16.08 -28.5,-36.54 -28.5,-61.39 v -815.6 c 0,-23.38 9.13,-43.48 27.4,-60.29 18.27,-16.81 42.03,-25.21 71.26,-25.21 27.77,0 50.43,8.4 67.97,25.21 17.54,16.81 26.3,37.64 26.3,62.49 v 287.21 c 49.7,-45.31 105.97,-67.97 168.82,-67.97 96.47,0 173.57,30.33 231.31,90.99 57.73,60.66 86.6,142.87 86.6,246.65 0,103.78 -29.23,186.73 -87.7,248.85 -58.46,62.11 -137.39,93.17 -236.78,93.17 z M 11445.66,3300 c 45.31,0 81.49,-15.72 108.53,-47.14 27.04,-31.43 40.56,-70.53 40.56,-117.3 0,-48.23 -13.52,-86.97 -40.56,-116.2 -27.04,-29.23 -63.22,-43.85 -108.53,-43.85 -43.85,0 -79.29,14.62 -106.33,43.85 -27.04,29.23 -40.57,67.97 -40.57,116.2 0,46.77 13.53,85.87 40.57,117.3 27.04,31.42 62.48,47.14 106.33,47.14 z"
     id="path16" /><path
     class="fil6"
     d="m 5041.66,4295.04 c -30.46,0 -56.19,-9.47 -77.17,-28.43 -6.09,18.96 -19.97,28.43 -41.64,28.43 -12.86,0 -23.69,-3.72 -32.49,-11.17 -8.8,-7.44 -13.2,-16.92 -13.2,-28.43 v -377.75 c 0,-10.83 4.23,-20.14 12.69,-27.92 8.46,-7.79 19.46,-11.68 33,-11.68 12.87,0 23.36,3.89 31.48,11.68 8.13,7.78 12.19,17.43 12.19,28.94 v 133.02 c 23.02,-20.98 49.08,-31.48 78.19,-31.48 44.68,0 80.39,14.05 107.13,42.14 26.74,28.1 40.11,66.18 40.11,114.24 0,48.07 -13.54,86.49 -40.62,115.26 -27.08,28.77 -63.63,43.15 -109.67,43.15 z m -7.11,-82.25 c 20.99,0 37.75,-7.28 50.27,-21.83 12.52,-14.55 18.79,-32.66 18.79,-54.33 0,-22.34 -6.27,-40.28 -18.79,-53.82 -12.52,-13.54 -29.28,-20.31 -50.27,-20.31 -20.3,0 -36.72,6.77 -49.25,20.31 -12.52,13.54 -18.78,31.48 -18.78,53.82 0,21.67 6.26,39.78 18.78,54.33 12.53,14.55 28.95,21.83 49.25,21.83 z m 187.86,-191.92 c 0,-13.54 4.74,-23.69 14.22,-30.46 9.48,-6.77 20.31,-10.16 32.5,-10.16 9.47,0 17.77,2.54 24.87,7.62 7.11,5.08 12.02,12.01 14.73,20.81 l 62.96,153.34 c 3.38,8.8 8.12,13.2 14.21,13.2 6.1,0 10.5,-4.4 13.2,-13.2 l 54.84,-153.34 c 3.38,-9.47 8.97,-16.58 16.75,-21.32 7.79,-4.74 16.08,-7.11 24.88,-7.11 11.51,0 22.17,3.73 31.99,11.17 9.82,7.45 14.72,17.26 14.72,29.45 0,6.77 -1.35,13.2 -4.06,19.29 l -158.41,365.57 c -4.74,10.15 -10.66,17.43 -17.77,21.83 -7.11,4.4 -14.39,6.6 -21.83,6.6 -12.19,0 -23.19,-4.23 -33,-12.69 -9.82,-8.46 -14.73,-18.45 -14.73,-29.96 0,-6.09 1.36,-11.51 4.06,-16.24 l 54.84,-97.49 c -11.51,-3.38 -20.65,-11.85 -27.42,-25.38 l -98.5,-213.25 c -2.03,-6.09 -3.05,-12.19 -3.05,-18.28 z"
     id="path17" /><path
     class="fil6"
     d="m 6710.13,4302.78 c -12.86,0 -23.69,-4.06 -32.49,-12.18 -8.8,-8.12 -13.2,-18.28 -13.2,-30.46 v -340.18 c 0,-12.87 4.4,-23.36 13.2,-31.48 8.8,-8.13 19.63,-12.19 32.49,-12.19 13.54,0 24.54,4.06 33,12.19 8.47,8.12 12.7,18.61 12.7,31.48 v 97.48 c 0,13.54 6.77,20.31 20.31,20.31 h 137.08 c 13.54,0 20.31,-6.77 20.31,-20.31 v -97.48 c 0,-12.87 4.23,-23.36 12.7,-31.48 8.46,-8.13 19.46,-12.19 33,-12.19 13.54,0 24.54,4.06 33,12.19 8.46,8.12 12.69,18.61 12.69,31.48 v 340.18 c 0,12.86 -4.23,23.18 -12.69,30.97 -8.46,7.78 -19.46,11.67 -33,11.67 -12.86,0 -23.7,-3.89 -32.5,-11.67 -8.8,-7.79 -13.2,-18.11 -13.2,-30.97 v -118.81 c 0,-13.54 -6.77,-20.31 -20.31,-20.31 h -137.08 c -13.54,0 -20.31,6.77 -20.31,20.31 v 118.81 c 0,12.86 -4.23,23.18 -12.7,30.97 -8.46,7.78 -19.46,11.67 -33,11.67 z m 544.29,0 c -46.04,0 -84.79,-13.7 -116.27,-41.12 -31.48,-27.42 -47.22,-65.16 -47.22,-113.23 0,-50.09 15.4,-89.36 46.2,-117.79 30.8,-28.43 69.56,-42.65 116.27,-42.65 33.17,0 60.59,6.09 82.26,18.28 21.66,12.19 37.91,27.76 48.74,46.71 10.83,18.96 16.24,38.93 16.24,59.91 0,35.21 -15.57,52.81 -46.71,52.81 h -168.56 c -5.42,0 -8.13,3.38 -8.13,10.15 0,15.57 8.63,27.93 25.9,37.07 17.26,9.14 36.72,13.71 58.39,13.71 13.54,0 27.08,-1.87 40.61,-5.59 13.54,-3.72 25.39,-9.31 35.55,-16.76 6.77,-4.73 13.87,-7.1 21.32,-7.1 10.16,0 18.79,3.72 25.89,11.17 7.11,7.44 10.67,16.24 10.67,26.4 0,12.18 -6.43,23.69 -19.3,34.52 -12.18,10.16 -29.95,18.28 -53.31,24.38 -23.35,6.09 -46.2,9.13 -68.54,9.13 z m 52.8,-195.98 c 1.36,0 3.22,-0.34 5.59,-1.01 2.37,-0.68 3.55,-3.05 3.55,-7.11 0,-10.16 -6.26,-19.47 -18.78,-27.93 -12.53,-8.46 -28.61,-12.69 -48.24,-12.69 -20.99,0 -38.08,4.57 -51.28,13.71 -13.2,9.14 -19.8,18.44 -19.8,27.92 0,4.74 2.71,7.11 8.12,7.11 z m 201.06,195.98 c -12.86,0 -23.69,-3.72 -32.5,-11.17 -8.8,-7.44 -13.2,-16.92 -13.2,-28.43 v -377.75 c 0,-10.83 4.23,-20.14 12.7,-27.92 8.46,-7.79 19.46,-11.68 33,-11.68 12.86,0 23.36,3.89 31.48,11.68 8.12,7.78 12.18,17.43 12.18,28.94 v 375.72 c 0,11.5 -4.23,21.15 -12.69,28.94 -8.46,7.78 -18.78,11.67 -30.97,11.67 z m 267.07,0 c -28.44,0 -55.01,-6.43 -79.72,-19.29 -24.71,-12.86 -44.51,-31.48 -59.4,-55.85 -14.89,-24.37 -22.34,-53.48 -22.34,-87.33 0.68,-46.71 15.91,-83.77 45.69,-111.19 29.79,-27.42 68.38,-41.13 115.77,-41.13 18.28,0 36.22,2.03 53.82,6.09 17.6,4.07 32.83,11.51 45.69,22.34 10.16,8.13 15.23,18.62 15.23,31.48 0,10.84 -3.89,20.65 -11.67,29.45 -7.79,8.8 -17.44,13.2 -28.94,13.2 -7.45,0 -14.22,-2.03 -20.31,-6.09 -10.16,-5.42 -19.13,-9.14 -26.91,-11.17 -7.79,-2.03 -16.42,-3.05 -25.9,-3.05 -22.34,0 -40.62,6.44 -54.83,19.3 -14.22,12.86 -21.33,30.12 -21.33,51.79 0,25.04 7.79,44.51 23.36,58.39 15.57,13.87 33.85,20.81 54.83,20.81 23.7,0 46.04,-8.8 67.02,-26.4 8.13,-6.09 15.91,-9.14 23.36,-9.14 10.83,0 20.14,4.4 27.92,13.2 7.79,8.8 11.68,18.96 11.68,30.47 0,4.73 -1.01,9.98 -3.04,15.74 -2.03,5.75 -5.76,11.33 -11.17,16.75 -18.28,14.89 -37.75,25.56 -58.39,31.99 -20.65,6.43 -40.79,9.64 -60.42,9.64 z m 332.05,0 c -46.04,0 -84.79,-13.7 -116.27,-41.12 -31.48,-27.42 -47.22,-65.16 -47.22,-113.23 0,-50.09 15.4,-89.36 46.2,-117.79 30.8,-28.43 69.56,-42.65 116.27,-42.65 33.17,0 60.59,6.09 82.26,18.28 21.66,12.19 37.91,27.76 48.74,46.71 10.83,18.96 16.24,38.93 16.24,59.91 0,35.21 -15.57,52.81 -46.71,52.81 h -168.56 c -5.42,0 -8.13,3.38 -8.13,10.15 0,15.57 8.63,27.93 25.9,37.07 17.26,9.14 36.72,13.71 58.39,13.71 13.54,0 27.08,-1.87 40.61,-5.59 13.54,-3.72 25.39,-9.31 35.55,-16.76 6.77,-4.73 13.87,-7.1 21.32,-7.1 10.16,0 18.79,3.72 25.89,11.17 7.11,7.44 10.67,16.24 10.67,26.4 0,12.18 -6.43,23.69 -19.3,34.52 -12.18,10.16 -29.95,18.28 -53.31,24.38 -23.35,6.09 -46.2,9.13 -68.54,9.13 z m 52.8,-195.98 c 1.36,0 3.22,-0.34 5.59,-1.01 2.37,-0.68 3.55,-3.05 3.55,-7.11 0,-10.16 -6.26,-19.47 -18.78,-27.93 -12.53,-8.46 -28.61,-12.69 -48.24,-12.69 -20.99,0 -38.08,4.57 -51.28,13.71 -13.2,9.14 -19.8,18.44 -19.8,27.92 0,4.74 2.71,7.11 8.12,7.11 z m 201.06,195.98 c -12.86,0 -23.69,-3.72 -32.5,-11.17 -8.8,-7.44 -13.2,-16.92 -13.2,-28.43 v -377.75 c 0,-10.83 4.23,-20.14 12.7,-27.92 8.46,-7.79 19.46,-11.68 33,-11.68 12.86,0 23.36,3.89 31.48,11.68 8.12,7.78 12.18,17.43 12.18,28.94 v 375.72 c 0,11.5 -4.23,21.15 -12.69,28.94 -8.46,7.78 -18.78,11.67 -30.97,11.67 z m 269.1,0 c -46.04,0 -84.79,-13.7 -116.27,-41.12 -31.48,-27.42 -47.22,-65.16 -47.22,-113.23 0,-50.09 15.4,-89.36 46.2,-117.79 30.8,-28.43 69.56,-42.65 116.27,-42.65 33.17,0 60.59,6.09 82.26,18.28 21.66,12.19 37.91,27.76 48.74,46.71 10.83,18.96 16.24,38.93 16.24,59.91 0,35.21 -15.57,52.81 -46.71,52.81 h -168.56 c -5.42,0 -8.13,3.38 -8.13,10.15 0,15.57 8.63,27.93 25.9,37.07 17.26,9.14 36.72,13.71 58.39,13.71 13.54,0 27.08,-1.87 40.61,-5.59 13.54,-3.72 25.39,-9.31 35.55,-16.76 6.77,-4.73 13.87,-7.1 21.32,-7.1 10.16,0 18.79,3.72 25.89,11.17 7.11,7.44 10.67,16.24 10.67,26.4 0,12.18 -6.43,23.69 -19.3,34.52 -12.18,10.16 -29.95,18.28 -53.31,24.38 -23.35,6.09 -46.2,9.13 -68.54,9.13 z m 52.8,-195.98 c 1.36,0 3.22,-0.34 5.59,-1.01 2.37,-0.68 3.55,-3.05 3.55,-7.11 0,-10.16 -6.26,-19.47 -18.78,-27.93 -12.53,-8.46 -28.61,-12.69 -48.24,-12.69 -20.99,0 -38.08,4.57 -51.28,13.71 -13.2,9.14 -19.8,18.44 -19.8,27.92 0,4.74 2.71,7.11 8.12,7.11 z m 281.28,195.98 c -29.11,0 -53.14,-8.46 -72.1,-25.38 -18.95,-16.93 -28.43,-42.99 -28.43,-78.19 v -109.67 c 0,-6.77 -3.38,-10.16 -10.15,-10.16 h -15.24 c -12.18,0 -21.32,-3.72 -27.41,-11.17 -6.1,-7.44 -9.14,-16.92 -9.14,-28.43 0,-12.19 3.04,-22.17 9.14,-29.96 6.09,-7.78 15.23,-11.67 27.41,-11.67 h 15.24 c 6.77,0 10.15,-3.39 10.15,-10.16 v -75.14 c 0,-11.51 4.06,-21.33 12.19,-29.45 8.12,-8.12 18.61,-12.19 31.48,-12.19 12.86,0 23.52,3.9 31.98,11.68 8.46,7.79 12.7,17.77 12.7,29.96 v 75.14 c 0,6.77 3.38,10.16 10.15,10.16 h 37.57 c 11.51,0 21.16,4.06 28.94,12.18 7.79,8.13 11.68,17.94 11.68,29.45 0,11.51 -3.89,20.99 -11.68,28.43 -7.78,7.45 -17.77,11.17 -29.95,11.17 h -36.56 c -6.77,0 -10.15,3.39 -10.15,10.16 v 95.45 c 0,12.19 2.2,20.65 6.6,25.39 4.4,4.74 9.98,7.11 16.75,7.11 2.71,0 8.12,-0.85 16.25,-2.54 8.12,-1.7 13.2,-2.54 15.23,-2.54 10.83,0 19.97,4.06 27.42,12.18 7.44,8.13 11.17,17.94 11.17,29.45 0,8.8 -2.54,16.93 -7.62,24.37 -5.08,7.45 -13.03,12.87 -23.86,16.25 -8.8,2.71 -17.26,4.74 -25.39,6.09 -8.12,1.36 -16.25,2.03 -24.37,2.03 z m 177.7,0 c -12.86,0 -23.69,-3.72 -32.49,-11.17 -8.8,-7.44 -13.2,-16.92 -13.2,-28.43 v -377.75 c 0,-10.83 4.23,-20.14 12.69,-27.92 8.46,-7.79 19.46,-11.68 33,-11.68 12.87,0 23.36,3.89 31.48,11.68 8.13,7.78 12.19,17.43 12.19,28.94 v 174.66 c 0,8.12 2.37,12.18 7.11,12.18 1.35,0 4.06,-1.35 8.12,-4.06 l 98.5,-73.11 c 8.12,-5.42 16.92,-8.13 26.4,-8.13 11.51,0 20.99,4.06 28.44,12.19 7.44,8.12 11.17,17.6 11.17,28.43 0,14.89 -6.77,26.74 -20.31,35.54 l -80.23,52.81 c -6.76,4.73 -10.15,9.81 -10.15,15.23 0,5.41 2.71,9.81 8.12,13.2 l 92.41,83.27 c 6.09,4.73 10.16,10.15 12.19,16.24 2.03,6.1 3.04,11.85 3.04,17.27 0,10.83 -4.23,20.31 -12.69,28.43 -8.46,8.12 -18.45,12.18 -29.96,12.18 -11.51,0 -21.66,-4.4 -30.46,-13.2 l -99.52,-97.48 c -2.03,-2.03 -4.4,-3.05 -7.1,-3.05 -3.39,0 -5.08,2.71 -5.08,8.13 v 64.99 c 0,11.5 -4.23,21.15 -12.69,28.94 -8.47,7.78 -18.79,11.67 -30.98,11.67 z m 411.27,0 c -45.36,0 -82.08,-14.38 -110.18,-43.15 -28.09,-28.77 -42.14,-67.19 -42.14,-115.26 0,-48.06 13.71,-86.14 41.13,-114.24 27.41,-28.09 63.46,-42.14 108.14,-42.14 31.82,0 59.58,11.17 83.27,33.51 2.71,-8.12 7.78,-14.89 15.23,-20.31 7.45,-5.41 16.25,-8.12 26.4,-8.12 13.54,0 24.54,3.89 33.01,11.68 8.46,7.78 12.69,17.09 12.69,27.92 v 230.51 c 0,11.51 -4.23,20.99 -12.69,28.43 -8.47,7.45 -19.47,11.17 -33.01,11.17 -22.34,0 -36.21,-9.81 -41.63,-29.44 -21.66,19.63 -48.4,29.44 -80.22,29.44 z m 7.11,-82.25 c 21.66,0 38.92,-7.28 51.78,-21.83 12.87,-14.55 19.3,-32.66 19.3,-54.33 0,-22.34 -6.43,-40.28 -19.3,-53.82 -12.86,-13.54 -30.12,-20.31 -51.78,-20.31 -20.99,0 -38.08,6.77 -51.28,20.31 -13.21,13.54 -19.81,31.48 -19.81,53.82 0,21.67 6.6,39.78 19.81,54.33 13.2,14.55 30.29,21.83 51.28,21.83 z"
     id="path18" /></g>
 </g>
</svg>
